HIERARCHY
ROOT Hips
{
	OFFSET 0.000000 0.000000 0.000000
	CHANNELS 6 Xposition Yposition Zposition Zrotation Yrotation Xrotation 
	JOINT LowerBack
	{
		OFFSET 0.000000 0.000000 0.000000
		CHANNELS 3 Zrotation Yrotation Xrotation
		JOINT Spine
		{
			OFFSET 0.028270 2.035590 -0.193380
			CHANNELS 3 Zrotation Yrotation Xrotation
			JOINT Spine1
			{
				OFFSET 0.056720 2.048850 -0.042750
				CHANNELS 3 Zrotation Yrotation Xrotation
				JOINT Neck
				{
					OFFSET 0.000000 0.000000 0.000000
					CHANNELS 3 Zrotation Yrotation Xrotation
					JOINT Neck1
					{
						OFFSET -0.054170 1.746240 0.172020
						CHANNELS 3 Zrotation Yrotation Xrotation
						JOINT Head
						{
							OFFSET 0.104070 1.761360 -0.123970
							CHANNELS 3 Zrotation Yrotation Xrotation
							End Site
							{
								OFFSET 0.000000 0.000000 0.000000
							}
						}
					}
				}
				JOINT LeftShoulder
				{
					OFFSET 0.000000 0.000000 0.000000
					CHANNELS 3 Zrotation Yrotation Xrotation
					JOINT LeftArm
					{
						OFFSET 3.362410 1.200890 -0.311210
						CHANNELS 3 Zrotation Yrotation Xrotation
						JOINT LeftForeArm
						{
							OFFSET 4.983000 -0.000000 -0.000000
							CHANNELS 3 Zrotation Yrotation Xrotation
							JOINT LeftHand
							{
								OFFSET 3.483560 -0.000000 -0.000000
								CHANNELS 3 Zrotation Yrotation Xrotation
								JOINT LeftFingerBase
								{
									OFFSET 0.000000 0.000000 0.000000
									CHANNELS 3 Zrotation Yrotation Xrotation
									JOINT LeftHandIndex1
									{
										OFFSET 0.715260 -0.000000 -0.000000
										CHANNELS 3 Zrotation Yrotation Xrotation
										End Site
										{
											OFFSET 0.000000 0.000000 0.000000
										}
									}
								}
								JOINT LThumb
								{
									OFFSET 0.000000 0.000000 0.000000
									CHANNELS 3 Zrotation Yrotation Xrotation
									End Site
									{
										OFFSET 0.000000 0.000000 0.000000
									}
								}
							}
						}
					}
				}
				JOINT RightShoulder
				{
					OFFSET 0.000000 0.000000 0.000000
					CHANNELS 3 Zrotation Yrotation Xrotation
					JOINT RightArm
					{
						OFFSET -3.136600 1.374050 -0.404650
						CHANNELS 3 Zrotation Yrotation Xrotation
						JOINT RightForeArm
						{
							OFFSET -5.241900 -0.000000 -0.000000
							CHANNELS 3 Zrotation Yrotation Xrotation
							JOINT RightHand
							{
								OFFSET -3.444170 -0.000000 -0.000000
								CHANNELS 3 Zrotation Yrotation Xrotation
								JOINT RightFingerBase
								{
									OFFSET 0.000000 0.000000 0.000000
									CHANNELS 3 Zrotation Yrotation Xrotation
									JOINT RightHandIndex1
									{
										OFFSET -0.622530 -0.000000 -0.000000
										CHANNELS 3 Zrotation Yrotation Xrotation
										End Site
										{
											OFFSET 0.000000 0.000000 0.000000
										}
									}
								}
								JOINT RThumb
								{
									OFFSET 0.000000 0.000000 0.000000
									CHANNELS 3 Zrotation Yrotation Xrotation
									End Site
									{
										OFFSET 0.000000 0.000000 0.000000
									}
								}
							}
						}
					}
				}
			}
		}
	}
}
}
MOTION
Frames: 9
Frame Time: 0.008333
1.324998 17.558426 0.435063 -174.708011 -61.014214 -168.410407 0.840054 -8.516903 -10.642214 -0.074437 -8.530063 -4.392856 -7.781034 -8.435300 -0.316123 20.352331 -13.737057 -4.721592 -2.159285 -0.207277 0.914086 0.000000 0.000000 0.000000 25.290501 -19.307817 4.028875 2.233096 -23.839438 -42.743787 -0.300338 -1.017196 -0.138437 17.680540 1.554443 0.181691 -0.463538 0.404359 -0.000000 0.000000 0.000000 0.000000 0.000000 0.000000 0.000000 15.591645 -16.155969 -3.445999 79.350366 35.728283 41.046269 -178.924934 55.891354 179.737273 -37.810105 30.942040 -11.662368 1.028629 -1.554349 -0.000000 0.000000 0.000000 0.000000 0.000000 0.000000 0.000000 
1.315652 17.554518 0.447397 -174.492271 -60.880460 -168.743383 1.264455 -8.475416 -10.611927 -0.000830 -8.510151 -4.350018 -7.776678 -8.410400 -0.028721 20.066833 -13.928930 -4.948896 -2.131404 -0.201501 0.849272 0.000000 0.000000 0.000000 25.360182 -18.665804 4.319814 0.810942 -24.560177 -39.519797 -1.043311 0.007434 -0.089637 10.332863 7.381087 0.665198 -0.337734 0.246975 -0.000000 0.000000 0.000000 0.000000 0.000000 0.000000 0.000000 15.284869 -16.417163 -3.575364 79.687821 35.482573 41.183061 -178.865539 55.923308 179.738132 -37.330338 30.728642 -11.422000 1.012330 -1.542549 -0.000000 0.000000 0.000000 0.000000 0.000000 0.000000 0.000000 
1.306871 17.549899 0.455701 -174.384731 -60.653234 -169.018354 1.710968 -8.374454 -10.636688 0.073943 -8.437927 -4.310301 -7.777966 -8.331746 0.298355 19.647496 -14.150023 -5.162100 -2.126293 -0.197338 0.787509 0.000000 0.000000 0.000000 25.284868 -17.681289 4.527337 -0.892531 -25.599959 -36.527105 -1.671503 0.033095 -0.054338 3.413730 11.956961 0.374759 -0.217621 0.137537 -0.000000 0.000000 0.000000 0.000000 0.000000 0.000000 0.000000 14.852606 -16.684596 -3.707436 80.199117 35.147606 41.406996 -178.817785 55.966673 179.739163 -36.707777 30.570335 -11.160234 0.992756 -1.535006 -0.000000 0.000000 0.000000 0.000000 0.000000 0.000000 0.000000 
1.299183 17.544607 0.459971 -174.375422 -60.350663 -169.228043 2.159150 -8.228737 -10.691473 0.151062 -8.325967 -4.271006 -7.772495 -8.212840 0.648271 19.132912 -14.400203 -5.375450 -2.136587 -0.194112 0.725163 0.000000 0.000000 0.000000 25.010846 -16.429140 4.673962 -2.699603 -26.812922 -33.868702 -2.144453 -0.842110 -0.031494 -2.423703 15.401946 -0.309663 -0.128769 0.073942 -0.000000 0.000000 0.000000 0.000000 0.000000 0.000000 0.000000 14.318929 -16.951972 -3.843540 80.848074 34.721214 41.687525 -178.781692 56.005172 179.740463 -35.966631 30.475272 -10.887668 0.970290 -1.531526 -0.000000 0.000000 0.000000 0.000000 0.000000 0.000000 0.000000 
1.293125 17.538801 0.461058 -174.440841 -59.985139 -169.390788 2.598169 -8.050369 -10.740477 0.229713 -8.185876 -4.228724 -7.757456 -8.066017 1.000407 18.566927 -14.673627 -5.594033 -2.155353 -0.191331 0.661156 0.000000 0.000000 0.000000 24.530689 -15.006366 4.770436 -4.541971 -28.024318 -31.701484 -2.424091 -2.578026 -0.018455 -6.633354 18.027191 -1.039029 -0.076414 0.044385 0.000000 0.000000 0.000000 0.000000 0.000000 0.000000 0.000000 13.721817 -17.202985 -3.979171 81.576924 34.214298 41.983747 -178.758038 56.025356 179.742003 -35.145762 30.443625 -10.615405 0.945746 -1.531663 -0.000000 0.000000 0.000000 0.000000 0.000000 0.000000 0.000000 
1.289238 17.532556 0.459593 -174.565300 -59.575771 -169.515132 3.012572 -7.852364 -10.759390 0.305135 -8.029823 -4.183547 -7.741713 -7.904238 1.328264 17.991416 -14.955006 -5.807991 -2.178820 -0.188969 0.598599 0.000000 0.000000 0.000000 23.848949 -13.529238 4.813324 -6.392024 -29.068232 -30.111683 -2.488847 -5.148123 -0.011908 -8.921528 20.070547 -1.569531 -0.052904 0.038313 -0.000000 0.000000 0.000000 0.000000 0.000000 0.000000 0.000000 13.099887 -17.412534 -4.103530 82.333015 33.623377 42.252528 -178.745753 56.015576 179.743598 -34.288177 30.469642 -10.353640 0.920161 -1.535078 -0.000000 0.000000 0.000000 0.000000 0.000000 0.000000 0.000000 
1.287508 17.525882 0.455594 -174.743305 -59.148453 -169.586088 3.383668 -7.646737 -10.749539 0.370987 -7.868373 -4.140685 -7.737562 -7.738662 1.605138 17.440128 -15.233233 -5.999647 -2.206993 -0.187402 0.542888 0.000000 0.000000 0.000000 22.984393 -12.108298 4.782321 -8.260974 -29.814898 -29.015814 -2.338306 -8.525768 -0.009529 -9.192904 21.572740 -1.741542 -0.048360 0.050035 0.000000 0.000000 0.000000 0.000000 0.000000 0.000000 0.000000 12.491143 -17.565004 -4.201139 83.063752 32.948166 42.458310 -178.744587 55.973368 179.745061 -33.443009 30.537465 -10.111049 0.895068 -1.541254 -0.000000 0.000000 0.000000 0.000000 0.000000 0.000000 0.000000 
1.287931 17.518713 0.449861 -174.961316 -58.719400 -169.613025 3.708971 -7.440229 -10.706343 0.422202 -7.707255 -4.107510 -7.759639 -7.575570 1.794993 16.927320 -15.486291 -6.135538 -2.242907 -0.187462 0.503760 0.000000 0.000000 0.000000 21.974918 -10.877059 4.650897 -10.213136 -30.088307 -28.190666 -1.996624 -12.748937 -0.010728 -7.538815 22.367735 -1.476239 -0.055494 0.078793 0.000000 0.000000 0.000000 0.000000 0.000000 0.000000 0.000000 11.912932 -17.636399 -4.252851 83.726167 32.183903 42.569316 -178.752347 55.903778 179.746007 -32.657591 30.632938 -9.896620 0.871644 -1.549779 -0.000000 0.000000 0.000000 0.000000 0.000000 0.000000 0.000000 
1.290101 17.510902 0.442984 -175.211626 -58.305726 -169.592276 3.989941 -7.235269 -10.640144 0.455210 -7.547682 -4.093012 -7.819711 -7.416483 1.869402 16.453020 -15.695694 -6.185520 -2.290128 -0.189935 0.489918 0.000000 0.000000 0.000000 20.830094 -9.919620 4.393266 -12.226965 -29.814359 -27.434003 -1.518360 -17.756031 -0.016861 -4.257437 22.101310 -0.813608 -0.069941 0.126817 0.000000 0.000000 0.000000 0.000000 0.000000 0.000000 0.000000 11.366904 -17.618758 -4.243703 84.294276 31.328898 42.569862 -178.764654 55.817348 179.746092 -31.974369 30.740629 -9.718035 0.850869 -1.560027 -0.000000 0.000000 0.000000 0.000000 0.000000 0.000000 0.000000 
